<?xml version="1.0" encoding="utf-8"?>
<!-- Generator: Adobe Illustrator 15.0.0, SVG Export Plug-In . SVG Version: 6.00 Build 0)  -->
<!DOCTYPE svg PUBLIC "-//W3C//DTD SVG 1.1//EN" "http://www.w3.org/Graphics/SVG/1.1/DTD/svg11.dtd">
<svg version="1.1" xmlns="http://www.w3.org/2000/svg" xmlns:xlink="http://www.w3.org/1999/xlink" x="0px" y="0px" width="800px"
	 height="800px" viewBox="0 0 800 800" enable-background="new 0 0 800 800" xml:space="preserve">
<g id="guides">
</g>
<g id="Layer_2">
	<rect x="1596" y="-733" fill="#4D64A5" width="558" height="558"/>
	<rect x="623" y="-857" fill="#8DCCAD" width="879" height="156"/>
	<rect x="1102" y="-551" fill="#D130AA" width="80" height="80"/>
	<rect x="1182" y="-551" fill="#BA882E" width="80" height="80"/>
	<rect x="1262" y="-551" fill="#C2DA8A" width="80" height="80"/>
	<rect x="1342" y="-551" fill="#64E1BA" width="80" height="80"/>
	<rect x="1422" y="-551" fill="#4D64A5" width="80" height="80"/>
	<rect x="1102" y="-431" fill="#FF9900" width="80" height="80"/>
	<rect x="823" y="-817" fill="#C98181" width="80" height="80"/>
	<rect x="743" y="-817" fill="#E29191" width="80" height="80"/>
	<rect x="663" y="-817" fill="#FCA2A2" width="80" height="80"/>
	<rect x="983" y="-817" fill="#966060" width="80" height="80"/>
	<rect x="1063" y="-817" fill="#7C5050" width="80" height="80"/>
	<rect x="1143" y="-817" fill="#634040" width="80" height="80"/>
	<rect x="1223" y="-817" fill="#492F2F" width="80" height="80"/>
	<rect x="1303" y="-817" fill="#301F1F" width="80" height="80"/>
	<rect x="1383" y="-817" fill="#020101" width="80" height="80"/>
	<rect x="1182" y="-431" fill="#424242" width="80" height="80"/>
	<rect x="1262" y="-431" fill="#E9E9E9" width="80" height="80"/>
	<rect x="1674" y="-415" fill="#6E81A0" width="80" height="80"/>
	<rect x="1342" y="-431" fill="#BCBCBC" width="80" height="80"/>
	<rect x="1754" y="-415" fill="#92DDC2" width="80" height="80"/>
	<rect x="1422" y="-431" fill="#3299BB" width="80" height="80"/>
	<rect x="2220" y="-658" fill="#FF9900" width="80" height="80"/>
	<rect x="2300" y="-658" fill="#424242" width="80" height="80"/>
	<rect x="2380" y="-658" fill="#E9E9E9" width="80" height="80"/>
	<rect x="2460" y="-658" fill="#BCBCBC" width="80" height="80"/>
	<rect x="2540" y="-658" fill="#3299BB" width="80" height="80"/>
	<rect x="1834" y="-415" fill="#CFD6B6" width="80" height="80"/>
	<rect x="1914" y="-415" fill="#B58E55" width="80" height="80"/>
	<rect x="1102" y="-676" fill="#8DCCAD" width="80" height="80"/>
	<rect x="1994" y="-415" fill="#CC5CBC" width="80" height="80"/>
	<rect x="1182" y="-676" fill="#988864" width="80" height="80"/>
	<rect x="903" y="-817" fill="#AF7171" width="80" height="80"/>
	<rect x="623" y="-1053" fill="#8DCCAD" width="720" height="156"/>
	<rect x="663" y="-1013" fill="#FCA2A2" width="80" height="80"/>
	<rect x="743" y="-1013" fill="#F9AFAF" width="80" height="80"/>
	<rect x="823" y="-1013" fill="#F7BABA" width="80" height="80"/>
	<rect x="903" y="-1013" fill="#F4C3C3" width="80" height="80"/>
	<rect x="983" y="-1013" fill="#F2CECE" width="80" height="80"/>
	<rect x="1063" y="-1013" fill="#EFD8D8" width="80" height="80"/>
	<rect x="1143" y="-1013" fill="#EDE2E2" width="80" height="80"/>
	<rect x="1223" y="-1013" fill="#EAEAEA" width="80" height="80"/>
	<rect x="1262" y="-676" fill="#FEA6A2" width="80" height="80"/>
	<rect x="1674" y="-495" fill="#7E8B9E" width="80" height="80"/>
	<rect x="1342" y="-676" fill="#F9D6AC" width="80" height="80"/>
	<rect x="1754" y="-495" fill="#A9DBC8" width="80" height="80"/>
	<rect x="1422" y="-676" fill="#FFE9AF" width="80" height="80"/>
	<rect x="1428" y="-2171" fill="#8DCCAD" width="480" height="1120"/>
	<rect x="1908" y="-2171" fill="#8DCCAD" width="80" height="80"/>
	<rect x="1908" y="-2091" fill="#85CCA6" width="80" height="80"/>
	<rect x="1908" y="-2011" fill="#7ACC9E" width="80" height="80"/>
	<rect x="1908" y="-1931" fill="#71CC96" width="80" height="80"/>
	<rect x="1908" y="-1851" fill="#66CC8F" width="80" height="80"/>
	<rect x="1908" y="-1771" fill="#5CCC8A" width="80" height="80"/>
	<rect x="1908" y="-1691" fill="#52CC83" width="80" height="80"/>
	<rect x="1908" y="-1611" fill="#48CC7E" width="80" height="80"/>
	<rect x="1908" y="-1531" fill="#3ECC77" width="80" height="80"/>
	<rect x="1908" y="-1451" fill="#33CC71" width="80" height="80"/>
	<rect x="1908" y="-1371" fill="#1FCC5D" width="80" height="80"/>
	<rect x="1908" y="-1291" fill="#15CC52" width="80" height="80"/>
	<rect x="1908" y="-1211" fill="#0ACC46" width="80" height="80"/>
	<rect x="1908" y="-1131" fill="#00CC3A" width="80" height="80"/>
	<rect x="1508" y="-1211" fill="#988864" width="80" height="80"/>
	<rect x="1588" y="-1211" fill="#FEA6A2" width="80" height="80"/>
	<rect x="1668" y="-1211" fill="#F9D6AC" width="80" height="80"/>
	<rect x="1748" y="-1211" fill="#FFE9AF" width="80" height="80"/>
	<rect x="1508" y="-1291" fill="#968769" width="80" height="80"/>
	<rect x="1588" y="-1291" fill="#FCB1B1" width="80" height="80"/>
	<rect x="1668" y="-1291" fill="#F7DABA" width="80" height="80"/>
	<rect x="1748" y="-1291" fill="#FFEBC0" width="80" height="80"/>
	<rect x="1508" y="-1371" fill="#93866F" width="80" height="80"/>
	<rect x="1588" y="-1371" fill="#F9BBBB" width="80" height="80"/>
	<rect x="1668" y="-1371" fill="#F4DBC3" width="80" height="80"/>
	<rect x="1748" y="-1371" fill="#FFEECC" width="80" height="80"/>
	<rect x="1508" y="-1451" fill="#918674" width="80" height="80"/>
	<rect x="1588" y="-1451" fill="#F7C6C6" width="80" height="80"/>
	<rect x="1668" y="-1451" fill="#F2DECE" width="80" height="80"/>
	<rect x="1748" y="-1451" fill="#FFF1D9" width="80" height="80"/>
	<rect x="1508" y="-1531" fill="#8E8679" width="80" height="80"/>
	<rect x="1588" y="-1531" fill="#F4D0D0" width="80" height="80"/>
	<rect x="1668" y="-1531" fill="#EFE1D8" width="80" height="80"/>
	<rect x="1748" y="-1531" fill="#FFF5E6" width="80" height="80"/>
	<rect x="1508" y="-1611" fill="#8C877E" width="80" height="80"/>
	<rect x="1588" y="-1611" fill="#F2DADA" width="80" height="80"/>
	<rect x="1668" y="-1611" fill="#EDE6E2" width="80" height="80"/>
	<rect x="1748" y="-1611" fill="#FFFAF3" width="80" height="80"/>
	<rect x="1508" y="-1691" fill="#8C877E" width="80" height="80"/>
	<rect x="1588" y="-1691" fill="#EFE4E4" width="80" height="80"/>
	<rect x="1668" y="-1691" fill="#EAEAEA" width="80" height="80"/>
	<rect x="1748" y="-1691" fill="#FFFFFF" width="80" height="80"/>
	<rect x="1508" y="-1771" fill="#898683" width="80" height="80"/>
	<rect x="1588" y="-1771" fill="#EDEDED" width="80" height="80"/>
	<rect x="1508" y="-1851" fill="#878787" width="80" height="80"/>
	<rect x="1834" y="-495" fill="#D1D3CB" width="80" height="80"/>
	<rect x="1914" y="-495" fill="#B29267" width="80" height="80"/>
	<rect x="1674" y="-335" fill="#5F74A3" width="80" height="80"/>
	<rect x="1994" y="-495" fill="#CC72C3" width="80" height="80"/>
	<rect x="1754" y="-335" fill="#7CE0BF" width="80" height="80"/>
	<rect x="1994" y="-575" fill="#CC89C9" width="80" height="80"/>
	<rect x="1834" y="-335" fill="#C9D8A0" width="80" height="80"/>
	<rect x="1674" y="-575" fill="#8C929B" width="80" height="80"/>
	<rect x="1914" y="-335" fill="#B78A42" width="80" height="80"/>
	<rect x="1754" y="-575" fill="#BFD8CE" width="80" height="80"/>
	<rect x="1994" y="-335" fill="#CE46B4" width="80" height="80"/>
	<rect x="1834" y="-575" fill="#D1D1D1" width="80" height="80"/>
	<rect x="1914" y="-575" fill="#AF9679" width="80" height="80"/>
	<rect x="1994" y="-655" fill="#CC9FCC" width="80" height="80"/>
	<rect x="1674" y="-655" fill="#999999" width="80" height="80"/>
	<rect x="1754" y="-655" fill="#D4D6D5" width="80" height="80"/>
	<rect x="1834" y="-655" fill="#D1D1D1" width="80" height="80"/>
	<rect x="1914" y="-655" fill="#AD9B8A" width="80" height="80"/>
</g>
<g id="Layer_3">
	<rect fill="#4D64A5" width="800" height="800"/>
	<rect x="160" y="448" fill="#6E81A0" width="96" height="96"/>
	<rect x="256" y="448" fill="#92DDC2" width="96" height="96"/>
	<rect x="352" y="448" fill="#CFD6B6" width="96" height="96"/>
	<rect x="448" y="448" fill="#B58E55" width="96" height="96"/>
	<rect x="544" y="448" fill="#CC5CBC" width="96" height="96"/>
	<rect x="160" y="352" fill="#7E8B9E" width="96" height="96"/>
	<rect x="256" y="352" fill="#A9DBC8" width="96" height="96"/>
	<rect x="352" y="352" fill="#D1D3CB" width="96" height="96"/>
	<rect x="448" y="352" fill="#B29267" width="96" height="96"/>
	<rect x="160" y="544" fill="#5F74A3" width="96" height="96"/>
	<rect x="544" y="352" fill="#CC72C3" width="96" height="96"/>
	<rect x="256" y="544" fill="#7CE0BF" width="96" height="96"/>
	<rect x="544" y="256" fill="#CC89C9" width="96" height="96"/>
	<rect x="352" y="544" fill="#C9D8A0" width="96" height="96"/>
	<rect x="160" y="256" fill="#8C929B" width="96" height="96"/>
	<rect x="448" y="544" fill="#B78A42" width="96" height="96"/>
	<rect x="256" y="256" fill="#BFD8CE" width="96" height="96"/>
	<rect x="544" y="544" fill="#CE46B4" width="96" height="96"/>
	<rect x="352" y="256" fill="#D1D1D1" width="96" height="96"/>
	<rect x="448" y="256" fill="#AF9679" width="96" height="96"/>
	<rect x="544" y="160" fill="#CC9FCC" width="96" height="96"/>
	<rect x="160" y="160" fill="#999999" width="96" height="96"/>
	<rect x="256" y="160" fill="#D4D6D5" width="96" height="96"/>
	<rect x="352" y="160" fill="#D1D1D1" width="96" height="96"/>
	<rect x="448" y="160" fill="#AD9B8A" width="96" height="96"/>
</g>
<g id="Layer_4">
	<rect x="1068" fill="#8DCCAD" width="720" height="800"/>
	<rect x="1788" fill="#8DCCAD" width="80" height="57"/>
	<rect x="1788" y="57" fill="#85CCA6" width="80" height="57"/>
	<rect x="1788" y="114" fill="#7ACC9E" width="80" height="58"/>
	<rect x="1788" y="172" fill="#71CC96" width="80" height="57"/>
	<rect x="1788" y="229" fill="#66CC8F" width="80" height="57"/>
	<rect x="1788" y="286" fill="#5CCC8A" width="80" height="57"/>
	<rect x="1788" y="343" fill="#52CC83" width="80" height="58"/>
	<rect x="1788" y="401" fill="#48CC7E" width="80" height="57"/>
	<rect x="1788" y="458" fill="#3ECC77" width="80" height="57"/>
	<rect x="1788" y="515" fill="#33CC71" width="80" height="56"/>
	<rect x="1788" y="571" fill="#1FCC5D" width="80" height="57"/>
	<rect x="1788" y="628" fill="#15CC52" width="80" height="58"/>
	<rect x="1788" y="686" fill="#0ACC46" width="80" height="57"/>
	<rect x="1788" y="743" fill="#00CC3A" width="80" height="57"/>
	<rect x="1108" y="40" fill="#988864" width="80" height="80"/>
	<rect x="1108" y="267" fill="#FEA6A2" width="80" height="80"/>
	<rect x="1109" y="493" fill="#F9D6AC" width="80" height="80"/>
	<rect x="1108" y="720" fill="#FFE9AF" width="80" height="80"/>
	<rect x="1188" y="40" fill="#968769" width="80" height="80"/>
	<rect x="1188" y="267" fill="#FCB1B1" width="80" height="80"/>
	<rect x="1189" y="493" fill="#F7DABA" width="80" height="80"/>
	<rect x="1188" y="720" fill="#FFEBC0" width="80" height="80"/>
	<rect x="1268" y="40" fill="#93866F" width="80" height="80"/>
	<rect x="1268" y="267" fill="#F9BBBB" width="80" height="80"/>
	<rect x="1269" y="493" fill="#F4DBC3" width="80" height="80"/>
	<rect x="1268" y="720" fill="#FFEECC" width="80" height="80"/>
	<rect x="1348" y="40" fill="#918674" width="80" height="80"/>
	<rect x="1348" y="267" fill="#F7C6C6" width="80" height="80"/>
	<rect x="1349" y="493" fill="#F2DECE" width="80" height="80"/>
	<rect x="1348" y="720" fill="#FFF1D9" width="80" height="80"/>
	<rect x="1428" y="40" fill="#8E8679" width="80" height="80"/>
	<rect x="1428" y="267" fill="#F4D0D0" width="80" height="80"/>
	<rect x="1429" y="493" fill="#EFE1D8" width="80" height="80"/>
	<rect x="1428" y="720" fill="#FFF5E6" width="80" height="80"/>
	<rect x="1508" y="40" fill="#8C877E" width="80" height="80"/>
	<rect x="1508" y="267" fill="#F2DADA" width="80" height="80"/>
	<rect x="1509" y="493" fill="#EDE6E2" width="80" height="80"/>
	<rect x="1508" y="720" fill="#FFFAF3" width="80" height="80"/>
	<rect x="1588" y="40" fill="#8C877E" width="80" height="80"/>
	<rect x="1588" y="267" fill="#EFE4E4" width="80" height="80"/>
	<rect x="1589" y="493" fill="#EAEAEA" width="80" height="80"/>
	<rect x="1588" y="720" fill="#FFFFFF" width="80" height="80"/>
	<rect x="1668" y="40" fill="#898683" width="80" height="80"/>
	<rect x="1668" y="267" fill="#EDEDED" width="80" height="80"/>
	<rect x="1748" y="40" fill="#878787" width="80" height="80"/>
</g>
<g id="Layer_5">
	<rect x="2153" fill="#00A99D" width="800" height="800"/>
	
		<rect x="2535.043" y="194.878" transform="matrix(0.7071 0.7071 -0.7071 0.7071 1075.7798 -1761.9797)" opacity="0.5" fill="#FF00FF" width="259.481" height="445.421"/>
	<rect x="2424" y="160" opacity="0.5" fill="#FF00FF" width="258" height="446"/>
	
		<rect x="2312.506" y="195.018" transform="matrix(0.7071 -0.7071 0.7071 0.7071 419.9373 1849.2765)" opacity="0.5" fill="#FF00FF" width="259.483" height="445.421"/>
</g>
<g id="Layer_6">
	<rect y="1100" fill="#998FA7" width="400" height="800"/>
	<rect x="400" y="1100" fill="#50D8D8" width="400" height="800"/>
	<rect x="267" y="1101" fill="#80C5C9" width="265" height="39"/>
	<rect x="80" y="1367" fill="#80C5C9" width="188" height="265"/>
	<rect x="533" y="1368" fill="#80C5C9" width="188" height="265"/>
</g>
<g id="Layer_7">
	<rect x="1068" y="1100" fill="#32C6C6" width="400" height="400"/>
	<rect x="1468" y="1100" fill="#63C6C6" width="400" height="400"/>
	<rect x="1468" y="1500" fill="#00C6C6" width="400" height="400"/>
	<rect x="1068" y="1500" fill="#95C6C6" width="400" height="400"/>
</g>
<g id="Layer_8">
	<rect x="2153" y="1100" fill="#5929A5" width="400" height="400"/>
	<rect x="2553" y="1100" fill="#7353A5" width="400" height="400"/>
	<rect x="2553" y="1500" fill="#4000A5" width="400" height="400"/>
	<rect x="2153" y="1500" fill="#8C7CA5" width="400" height="400"/>
	<rect x="2233" y="1180" fill="#32C6C6" width="120" height="120"/>
	<rect x="2353" y="1180" fill="#63C6C6" width="120" height="120"/>
	<rect x="2353" y="1300" fill="#00C6C6" width="120" height="120"/>
	<rect x="2233" y="1300" fill="#95C6C6" width="120" height="120"/>
	<rect x="2633" y="1180" fill="#32C6C6" width="120" height="120"/>
	<rect x="2753" y="1180" fill="#63C6C6" width="120" height="120"/>
	<rect x="2753" y="1300" fill="#00C6C6" width="120" height="120"/>
	<rect x="2633" y="1300" fill="#95C6C6" width="120" height="120"/>
	<rect x="2633" y="1580" fill="#32C6C6" width="120" height="120"/>
	<rect x="2753" y="1580" fill="#63C6C6" width="120" height="120"/>
	<rect x="2753" y="1700" fill="#00C6C6" width="120" height="120"/>
	<rect x="2633" y="1700" fill="#95C6C6" width="120" height="120"/>
	<rect x="2233" y="1580" fill="#32C6C6" width="120" height="120"/>
	<rect x="2353" y="1580" fill="#63C6C6" width="120" height="120"/>
	<rect x="2353" y="1700" fill="#00C6C6" width="120" height="120"/>
	<rect x="2233" y="1700" fill="#95C6C6" width="120" height="120"/>
</g>
<g id="Layer_9">
	<rect y="2171" fill="#9993A3" width="800" height="800"/>
	<rect x="80" y="2291" fill="#8A80A0" width="640" height="640"/>
	<rect x="160" y="2411" fill="#DBEA9D" width="480" height="480"/>
	<rect x="267" y="2546" fill="#E8C39E" width="265" height="265"/>
</g>
<g id="Layer_10">
	<rect x="1068" y="2171" fill="#FFEDBF" width="400" height="160"/>
	<rect x="1468" y="2171" fill="#F8E4C1" width="400" height="160"/>
	<rect x="1468" y="2171" fill="#2E0D23" width="241" height="160"/>
	<rect x="1335" y="2171" fill="#F54828" width="133" height="160"/>
	<rect x="1228" y="2171" fill="#F7803C" width="107" height="160"/>
	<rect x="1068" y="2331" opacity="0.75" fill="#FFEDBF" width="400" height="160"/>
	<rect x="1468" y="2331" opacity="0.75" fill="#F8E4C1" width="400" height="160"/>
	<rect x="1468" y="2331" opacity="0.75" fill="#2E0D23" width="241" height="160"/>
	<rect x="1335" y="2331" opacity="0.75" fill="#F54828" width="133" height="160"/>
	<rect x="1228" y="2331" opacity="0.75" fill="#F7803C" width="107" height="160"/>
	<rect x="1068" y="2491" opacity="0.5" fill="#FFEDBF" width="400" height="160"/>
	<rect x="1468" y="2491" opacity="0.5" fill="#F8E4C1" width="400" height="160"/>
	<rect x="1468" y="2491" opacity="0.5" fill="#2E0D23" width="241" height="160"/>
	<rect x="1335" y="2491" opacity="0.5" fill="#F54828" width="133" height="160"/>
	<rect x="1228" y="2491" opacity="0.5" fill="#F7803C" width="107" height="160"/>
	<rect x="1068" y="2651" opacity="0.25" fill="#FFEDBF" width="400" height="160"/>
	<rect x="1468" y="2651" opacity="0.25" fill="#F8E4C1" width="400" height="160"/>
	<rect x="1468" y="2651" opacity="0.25" fill="#2E0D23" width="241" height="160"/>
	<rect x="1335" y="2651" opacity="0.25" fill="#F54828" width="133" height="160"/>
	<rect x="1228" y="2651" opacity="0.25" fill="#F7803C" width="107" height="160"/>
	<rect x="1068" y="2811" opacity="0.15" fill="#FFEDBF" width="400" height="160"/>
	<rect x="1468" y="2811" opacity="0.15" fill="#F8E4C1" width="400" height="160"/>
	<rect x="1468" y="2811" opacity="0.15" fill="#2E0D23" width="241" height="160"/>
	<rect x="1335" y="2811" opacity="0.15" fill="#F54828" width="133" height="160"/>
	<rect x="1228" y="2811" opacity="0.15" fill="#F7803C" width="107" height="160"/>
</g>
<g id="Layer_11">
	<rect x="2753" y="2931" fill="#FF9900" width="40" height="40"/>
	<rect x="2793" y="2931" fill="#424242" width="40" height="40"/>
	<rect x="2833" y="2931" fill="#E9E9E9" width="40" height="40"/>
	<rect x="2873" y="2931" fill="#BCBCBC" width="40" height="40"/>
	<rect x="2913" y="2931" fill="#3299BB" width="40" height="40"/>
	<rect x="2193" y="2211" fill="#BCBCBC" width="720" height="720"/>
	<rect x="2313" y="2331" fill="#424242" width="160" height="479"/>
	<rect x="2473" y="2438" fill="#E9E9E9" width="81" height="54"/>
	<rect x="2420" y="2438" opacity="0.75" fill="#3299BB" width="53" height="54"/>
	<rect x="2473" y="2650" fill="#E9E9E9" width="81" height="54"/>
	<rect x="2420" y="2650" opacity="0.25" fill="#3299BB" width="53" height="54"/>
	<rect x="2473" y="2544" fill="#E9E9E9" width="81" height="54"/>
	<rect x="2420" y="2544" opacity="0.5" fill="#3299BB" width="53" height="54"/>
	<rect x="2634" y="2332" fill="#424242" width="160" height="479"/>
	<rect x="2553" y="2650" fill="#E9E9E9" width="81" height="54"/>
	<rect x="2634" y="2650" opacity="0.75" fill="#FF9900" width="53" height="54"/>
	<rect x="2553" y="2438" fill="#E9E9E9" width="81" height="54"/>
	<rect x="2634" y="2438" opacity="0.25" fill="#FF9900" width="53" height="54"/>
	<rect x="2553" y="2544" fill="#E9E9E9" width="81" height="54"/>
	<rect x="2634" y="2544" opacity="0.5" fill="#FF9900" width="53" height="54"/>
</g>
</svg>
