<?xml version="1.0" encoding="utf-8"?>
<!-- Generator: Adobe Illustrator 15.0.0, SVG Export Plug-In . SVG Version: 6.00 Build 0)  -->
<!DOCTYPE svg PUBLIC "-//W3C//DTD SVG 1.1//EN" "http://www.w3.org/Graphics/SVG/1.1/DTD/svg11.dtd">
<svg version="1.1" xmlns="http://www.w3.org/2000/svg" xmlns:xlink="http://www.w3.org/1999/xlink" x="0px" y="0px" width="800px"
	 height="800px" viewBox="0 0 800 800" enable-background="new 0 0 800 800" xml:space="preserve">
<g id="guides">
</g>
<g id="Layer_2">
	<rect x="-557" y="-1833" fill="#4D64A5" width="558" height="558"/>
	<rect x="-1530" y="-1957" fill="#8DCCAD" width="879" height="156"/>
	<rect x="-1051" y="-1651" fill="#D130AA" width="80" height="80"/>
	<rect x="-971" y="-1651" fill="#BA882E" width="80" height="80"/>
	<rect x="-891" y="-1651" fill="#C2DA8A" width="80" height="80"/>
	<rect x="-811" y="-1651" fill="#64E1BA" width="80" height="80"/>
	<rect x="-731" y="-1651" fill="#4D64A5" width="80" height="80"/>
	<rect x="-1051" y="-1531" fill="#FF9900" width="80" height="80"/>
	<rect x="-1330" y="-1917" fill="#C98181" width="80" height="80"/>
	<rect x="-1410" y="-1917" fill="#E29191" width="80" height="80"/>
	<rect x="-1490" y="-1917" fill="#FCA2A2" width="80" height="80"/>
	<rect x="-1170" y="-1917" fill="#966060" width="80" height="80"/>
	<rect x="-1090" y="-1917" fill="#7C5050" width="80" height="80"/>
	<rect x="-1010" y="-1917" fill="#634040" width="80" height="80"/>
	<rect x="-930" y="-1917" fill="#492F2F" width="80" height="80"/>
	<rect x="-850" y="-1917" fill="#301F1F" width="80" height="80"/>
	<rect x="-770" y="-1917" fill="#020101" width="80" height="80"/>
	<rect x="-971" y="-1531" fill="#424242" width="80" height="80"/>
	<rect x="-891" y="-1531" fill="#E9E9E9" width="80" height="80"/>
	<rect x="-479" y="-1515" fill="#6E81A0" width="80" height="80"/>
	<rect x="-811" y="-1531" fill="#BCBCBC" width="80" height="80"/>
	<rect x="-399" y="-1515" fill="#92DDC2" width="80" height="80"/>
	<rect x="-731" y="-1531" fill="#3299BB" width="80" height="80"/>
	<rect x="67" y="-1758" fill="#FF9900" width="80" height="80"/>
	<rect x="147" y="-1758" fill="#424242" width="80" height="80"/>
	<rect x="227" y="-1758" fill="#E9E9E9" width="80" height="80"/>
	<rect x="307" y="-1758" fill="#BCBCBC" width="80" height="80"/>
	<rect x="387" y="-1758" fill="#3299BB" width="80" height="80"/>
	<rect x="-319" y="-1515" fill="#CFD6B6" width="80" height="80"/>
	<rect x="-239" y="-1515" fill="#B58E55" width="80" height="80"/>
	<rect x="-1051" y="-1776" fill="#8DCCAD" width="80" height="80"/>
	<rect x="-159" y="-1515" fill="#CC5CBC" width="80" height="80"/>
	<rect x="-971" y="-1776" fill="#988864" width="80" height="80"/>
	<rect x="-1250" y="-1917" fill="#AF7171" width="80" height="80"/>
	<rect x="-1530" y="-2153" fill="#8DCCAD" width="720" height="156"/>
	<rect x="-1490" y="-2113" fill="#FCA2A2" width="80" height="80"/>
	<rect x="-1410" y="-2113" fill="#F9AFAF" width="80" height="80"/>
	<rect x="-1330" y="-2113" fill="#F7BABA" width="80" height="80"/>
	<rect x="-1250" y="-2113" fill="#F4C3C3" width="80" height="80"/>
	<rect x="-1170" y="-2113" fill="#F2CECE" width="80" height="80"/>
	<rect x="-1090" y="-2113" fill="#EFD8D8" width="80" height="80"/>
	<rect x="-1010" y="-2113" fill="#EDE2E2" width="80" height="80"/>
	<rect x="-930" y="-2113" fill="#EAEAEA" width="80" height="80"/>
	<rect x="-891" y="-1776" fill="#FEA6A2" width="80" height="80"/>
	<rect x="-479" y="-1595" fill="#7E8B9E" width="80" height="80"/>
	<rect x="-811" y="-1776" fill="#F9D6AC" width="80" height="80"/>
	<rect x="-399" y="-1595" fill="#A9DBC8" width="80" height="80"/>
	<rect x="-731" y="-1776" fill="#FFE9AF" width="80" height="80"/>
	<rect x="-725" y="-3271" fill="#8DCCAD" width="480" height="1120"/>
	<rect x="-245" y="-3271" fill="#8DCCAD" width="80" height="80"/>
	<rect x="-245" y="-3191" fill="#85CCA6" width="80" height="80"/>
	<rect x="-245" y="-3111" fill="#7ACC9E" width="80" height="80"/>
	<rect x="-245" y="-3031" fill="#71CC96" width="80" height="80"/>
	<rect x="-245" y="-2951" fill="#66CC8F" width="80" height="80"/>
	<rect x="-245" y="-2871" fill="#5CCC8A" width="80" height="80"/>
	<rect x="-245" y="-2791" fill="#52CC83" width="80" height="80"/>
	<rect x="-245" y="-2711" fill="#48CC7E" width="80" height="80"/>
	<rect x="-245" y="-2631" fill="#3ECC77" width="80" height="80"/>
	<rect x="-245" y="-2551" fill="#33CC71" width="80" height="80"/>
	<rect x="-245" y="-2471" fill="#1FCC5D" width="80" height="80"/>
	<rect x="-245" y="-2391" fill="#15CC52" width="80" height="80"/>
	<rect x="-245" y="-2311" fill="#0ACC46" width="80" height="80"/>
	<rect x="-245" y="-2231" fill="#00CC3A" width="80" height="80"/>
	<rect x="-645" y="-2311" fill="#988864" width="80" height="80"/>
	<rect x="-565" y="-2311" fill="#FEA6A2" width="80" height="80"/>
	<rect x="-485" y="-2311" fill="#F9D6AC" width="80" height="80"/>
	<rect x="-405" y="-2311" fill="#FFE9AF" width="80" height="80"/>
	<rect x="-645" y="-2391" fill="#968769" width="80" height="80"/>
	<rect x="-565" y="-2391" fill="#FCB1B1" width="80" height="80"/>
	<rect x="-485" y="-2391" fill="#F7DABA" width="80" height="80"/>
	<rect x="-405" y="-2391" fill="#FFEBC0" width="80" height="80"/>
	<rect x="-645" y="-2471" fill="#93866F" width="80" height="80"/>
	<rect x="-565" y="-2471" fill="#F9BBBB" width="80" height="80"/>
	<rect x="-485" y="-2471" fill="#F4DBC3" width="80" height="80"/>
	<rect x="-405" y="-2471" fill="#FFEECC" width="80" height="80"/>
	<rect x="-645" y="-2551" fill="#918674" width="80" height="80"/>
	<rect x="-565" y="-2551" fill="#F7C6C6" width="80" height="80"/>
	<rect x="-485" y="-2551" fill="#F2DECE" width="80" height="80"/>
	<rect x="-405" y="-2551" fill="#FFF1D9" width="80" height="80"/>
	<rect x="-645" y="-2631" fill="#8E8679" width="80" height="80"/>
	<rect x="-565" y="-2631" fill="#F4D0D0" width="80" height="80"/>
	<rect x="-485" y="-2631" fill="#EFE1D8" width="80" height="80"/>
	<rect x="-405" y="-2631" fill="#FFF5E6" width="80" height="80"/>
	<rect x="-645" y="-2711" fill="#8C877E" width="80" height="80"/>
	<rect x="-565" y="-2711" fill="#F2DADA" width="80" height="80"/>
	<rect x="-485" y="-2711" fill="#EDE6E2" width="80" height="80"/>
	<rect x="-405" y="-2711" fill="#FFFAF3" width="80" height="80"/>
	<rect x="-645" y="-2791" fill="#8C877E" width="80" height="80"/>
	<rect x="-565" y="-2791" fill="#EFE4E4" width="80" height="80"/>
	<rect x="-485" y="-2791" fill="#EAEAEA" width="80" height="80"/>
	<rect x="-405" y="-2791" fill="#FFFFFF" width="80" height="80"/>
	<rect x="-645" y="-2871" fill="#898683" width="80" height="80"/>
	<rect x="-565" y="-2871" fill="#EDEDED" width="80" height="80"/>
	<rect x="-645" y="-2951" fill="#878787" width="80" height="80"/>
	<rect x="-319" y="-1595" fill="#D1D3CB" width="80" height="80"/>
	<rect x="-239" y="-1595" fill="#B29267" width="80" height="80"/>
	<rect x="-479" y="-1435" fill="#5F74A3" width="80" height="80"/>
	<rect x="-159" y="-1595" fill="#CC72C3" width="80" height="80"/>
	<rect x="-399" y="-1435" fill="#7CE0BF" width="80" height="80"/>
	<rect x="-159" y="-1675" fill="#CC89C9" width="80" height="80"/>
	<rect x="-319" y="-1435" fill="#C9D8A0" width="80" height="80"/>
	<rect x="-479" y="-1675" fill="#8C929B" width="80" height="80"/>
	<rect x="-239" y="-1435" fill="#B78A42" width="80" height="80"/>
	<rect x="-399" y="-1675" fill="#BFD8CE" width="80" height="80"/>
	<rect x="-159" y="-1435" fill="#CE46B4" width="80" height="80"/>
	<rect x="-319" y="-1675" fill="#D1D1D1" width="80" height="80"/>
	<rect x="-239" y="-1675" fill="#AF9679" width="80" height="80"/>
	<rect x="-159" y="-1755" fill="#CC9FCC" width="80" height="80"/>
	<rect x="-479" y="-1755" fill="#999999" width="80" height="80"/>
	<rect x="-399" y="-1755" fill="#D4D6D5" width="80" height="80"/>
	<rect x="-319" y="-1755" fill="#D1D1D1" width="80" height="80"/>
	<rect x="-239" y="-1755" fill="#AD9B8A" width="80" height="80"/>
</g>
<g id="Layer_3">
	<rect x="-2153" y="-1100" fill="#4D64A5" width="800" height="800"/>
	<rect x="-1993" y="-652" fill="#6E81A0" width="96" height="96"/>
	<rect x="-1897" y="-652" fill="#92DDC2" width="96" height="96"/>
	<rect x="-1801" y="-652" fill="#CFD6B6" width="96" height="96"/>
	<rect x="-1705" y="-652" fill="#B58E55" width="96" height="96"/>
	<rect x="-1609" y="-652" fill="#CC5CBC" width="96" height="96"/>
	<rect x="-1993" y="-748" fill="#7E8B9E" width="96" height="96"/>
	<rect x="-1897" y="-748" fill="#A9DBC8" width="96" height="96"/>
	<rect x="-1801" y="-748" fill="#D1D3CB" width="96" height="96"/>
	<rect x="-1705" y="-748" fill="#B29267" width="96" height="96"/>
	<rect x="-1993" y="-556" fill="#5F74A3" width="96" height="96"/>
	<rect x="-1609" y="-748" fill="#CC72C3" width="96" height="96"/>
	<rect x="-1897" y="-556" fill="#7CE0BF" width="96" height="96"/>
	<rect x="-1609" y="-844" fill="#CC89C9" width="96" height="96"/>
	<rect x="-1801" y="-556" fill="#C9D8A0" width="96" height="96"/>
	<rect x="-1993" y="-844" fill="#8C929B" width="96" height="96"/>
	<rect x="-1705" y="-556" fill="#B78A42" width="96" height="96"/>
	<rect x="-1897" y="-844" fill="#BFD8CE" width="96" height="96"/>
	<rect x="-1609" y="-556" fill="#CE46B4" width="96" height="96"/>
	<rect x="-1801" y="-844" fill="#D1D1D1" width="96" height="96"/>
	<rect x="-1705" y="-844" fill="#AF9679" width="96" height="96"/>
	<rect x="-1609" y="-940" fill="#CC9FCC" width="96" height="96"/>
	<rect x="-1993" y="-940" fill="#999999" width="96" height="96"/>
	<rect x="-1897" y="-940" fill="#D4D6D5" width="96" height="96"/>
	<rect x="-1801" y="-940" fill="#D1D1D1" width="96" height="96"/>
	<rect x="-1705" y="-940" fill="#AD9B8A" width="96" height="96"/>
</g>
<g id="Layer_4">
	<rect x="-1085" y="-1100" fill="#8DCCAD" width="720" height="800"/>
	<rect x="-365" y="-1100" fill="#8DCCAD" width="80" height="57"/>
	<rect x="-365" y="-1043" fill="#85CCA6" width="80" height="57"/>
	<rect x="-365" y="-986" fill="#7ACC9E" width="80" height="58"/>
	<rect x="-365" y="-928" fill="#71CC96" width="80" height="57"/>
	<rect x="-365" y="-871" fill="#66CC8F" width="80" height="57"/>
	<rect x="-365" y="-814" fill="#5CCC8A" width="80" height="57"/>
	<rect x="-365" y="-757" fill="#52CC83" width="80" height="58"/>
	<rect x="-365" y="-699" fill="#48CC7E" width="80" height="57"/>
	<rect x="-365" y="-642" fill="#3ECC77" width="80" height="57"/>
	<rect x="-365" y="-585" fill="#33CC71" width="80" height="56"/>
	<rect x="-365" y="-529" fill="#1FCC5D" width="80" height="57"/>
	<rect x="-365" y="-472" fill="#15CC52" width="80" height="58"/>
	<rect x="-365" y="-414" fill="#0ACC46" width="80" height="57"/>
	<rect x="-365" y="-357" fill="#00CC3A" width="80" height="57"/>
	<rect x="-1045" y="-1060" fill="#988864" width="80" height="80"/>
	<rect x="-1045" y="-833" fill="#FEA6A2" width="80" height="80"/>
	<rect x="-1044" y="-607" fill="#F9D6AC" width="80" height="80"/>
	<rect x="-1045" y="-380" fill="#FFE9AF" width="80" height="80"/>
	<rect x="-965" y="-1060" fill="#968769" width="80" height="80"/>
	<rect x="-965" y="-833" fill="#FCB1B1" width="80" height="80"/>
	<rect x="-964" y="-607" fill="#F7DABA" width="80" height="80"/>
	<rect x="-965" y="-380" fill="#FFEBC0" width="80" height="80"/>
	<rect x="-885" y="-1060" fill="#93866F" width="80" height="80"/>
	<rect x="-885" y="-833" fill="#F9BBBB" width="80" height="80"/>
	<rect x="-884" y="-607" fill="#F4DBC3" width="80" height="80"/>
	<rect x="-885" y="-380" fill="#FFEECC" width="80" height="80"/>
	<rect x="-805" y="-1060" fill="#918674" width="80" height="80"/>
	<rect x="-805" y="-833" fill="#F7C6C6" width="80" height="80"/>
	<rect x="-804" y="-607" fill="#F2DECE" width="80" height="80"/>
	<rect x="-805" y="-380" fill="#FFF1D9" width="80" height="80"/>
	<rect x="-725" y="-1060" fill="#8E8679" width="80" height="80"/>
	<rect x="-725" y="-833" fill="#F4D0D0" width="80" height="80"/>
	<rect x="-724" y="-607" fill="#EFE1D8" width="80" height="80"/>
	<rect x="-725" y="-380" fill="#FFF5E6" width="80" height="80"/>
	<rect x="-645" y="-1060" fill="#8C877E" width="80" height="80"/>
	<rect x="-645" y="-833" fill="#F2DADA" width="80" height="80"/>
	<rect x="-644" y="-607" fill="#EDE6E2" width="80" height="80"/>
	<rect x="-645" y="-380" fill="#FFFAF3" width="80" height="80"/>
	<rect x="-565" y="-1060" fill="#8C877E" width="80" height="80"/>
	<rect x="-565" y="-833" fill="#EFE4E4" width="80" height="80"/>
	<rect x="-564" y="-607" fill="#EAEAEA" width="80" height="80"/>
	<rect x="-565" y="-380" fill="#FFFFFF" width="80" height="80"/>
	<rect x="-485" y="-1060" fill="#898683" width="80" height="80"/>
	<rect x="-485" y="-833" fill="#EDEDED" width="80" height="80"/>
	<rect x="-405" y="-1060" fill="#878787" width="80" height="80"/>
</g>
<g id="Layer_5">
	<rect y="-1100" fill="#00A99D" width="800" height="800"/>
	
		<rect x="382.043" y="-905.122" transform="matrix(0.7071 0.7071 -0.7071 0.7071 -332.6399 -561.7605)" opacity="0.5" fill="#FF00FF" width="259.481" height="445.421"/>
	<rect x="271" y="-940" opacity="0.5" fill="#FF00FF" width="258" height="446"/>
	
		<rect x="159.506" y="-904.982" transform="matrix(0.7071 -0.7071 0.7071 0.7071 567.1566 4.6962)" opacity="0.5" fill="#FF00FF" width="259.483" height="445.421"/>
</g>
<g id="Layer_6">
	<rect x="-2153" fill="#998FA7" width="400" height="800"/>
	<rect x="-1753" fill="#50D8D8" width="400" height="800"/>
	<rect x="-1886" y="1" fill="#80C5C9" width="265" height="39"/>
	<rect x="-2073" y="267" fill="#80C5C9" width="188" height="265"/>
	<rect x="-1620" y="268" fill="#80C5C9" width="188" height="265"/>
</g>
<g id="Layer_7">
	<rect x="-1085" fill="#32C6C6" width="400" height="400"/>
	<rect x="-685" fill="#63C6C6" width="400" height="400"/>
	<rect x="-685" y="400" fill="#00C6C6" width="400" height="400"/>
	<rect x="-1085" y="400" fill="#95C6C6" width="400" height="400"/>
</g>
<g id="Layer_8">
	<rect fill="#5929A5" width="400" height="400"/>
	<rect x="400" fill="#7353A5" width="400" height="400"/>
	<rect x="400" y="400" fill="#4000A5" width="400" height="400"/>
	<rect y="400" fill="#8C7CA5" width="400" height="400"/>
	<rect x="80" y="80" fill="#32C6C6" width="120" height="120"/>
	<rect x="200" y="80" fill="#63C6C6" width="120" height="120"/>
	<rect x="200" y="200" fill="#00C6C6" width="120" height="120"/>
	<rect x="80" y="200" fill="#95C6C6" width="120" height="120"/>
	<rect x="480" y="80" fill="#32C6C6" width="120" height="120"/>
	<rect x="600" y="80" fill="#63C6C6" width="120" height="120"/>
	<rect x="600" y="200" fill="#00C6C6" width="120" height="120"/>
	<rect x="480" y="200" fill="#95C6C6" width="120" height="120"/>
	<rect x="480" y="480" fill="#32C6C6" width="120" height="120"/>
	<rect x="600" y="480" fill="#63C6C6" width="120" height="120"/>
	<rect x="600" y="600" fill="#00C6C6" width="120" height="120"/>
	<rect x="480" y="600" fill="#95C6C6" width="120" height="120"/>
	<rect x="80" y="480" fill="#32C6C6" width="120" height="120"/>
	<rect x="200" y="480" fill="#63C6C6" width="120" height="120"/>
	<rect x="200" y="600" fill="#00C6C6" width="120" height="120"/>
	<rect x="80" y="600" fill="#95C6C6" width="120" height="120"/>
</g>
<g id="Layer_9">
	<rect x="-2153" y="1071" fill="#9993A3" width="800" height="800"/>
	<rect x="-2073" y="1191" fill="#8A80A0" width="640" height="640"/>
	<rect x="-1993" y="1311" fill="#DBEA9D" width="480" height="480"/>
	<rect x="-1886" y="1446" fill="#E8C39E" width="265" height="265"/>
</g>
<g id="Layer_10">
	<rect x="-1085" y="1071" fill="#FFEDBF" width="400" height="160"/>
	<rect x="-685" y="1071" fill="#F8E4C1" width="400" height="160"/>
	<rect x="-685" y="1071" fill="#2E0D23" width="241" height="160"/>
	<rect x="-818" y="1071" fill="#F54828" width="133" height="160"/>
	<rect x="-925" y="1071" fill="#F7803C" width="107" height="160"/>
	<rect x="-1085" y="1231" opacity="0.75" fill="#FFEDBF" width="400" height="160"/>
	<rect x="-685" y="1231" opacity="0.75" fill="#F8E4C1" width="400" height="160"/>
	<rect x="-685" y="1231" opacity="0.75" fill="#2E0D23" width="241" height="160"/>
	<rect x="-818" y="1231" opacity="0.75" fill="#F54828" width="133" height="160"/>
	<rect x="-925" y="1231" opacity="0.75" fill="#F7803C" width="107" height="160"/>
	<rect x="-1085" y="1391" opacity="0.5" fill="#FFEDBF" width="400" height="160"/>
	<rect x="-685" y="1391" opacity="0.5" fill="#F8E4C1" width="400" height="160"/>
	<rect x="-685" y="1391" opacity="0.5" fill="#2E0D23" width="241" height="160"/>
	<rect x="-818" y="1391" opacity="0.5" fill="#F54828" width="133" height="160"/>
	<rect x="-925" y="1391" opacity="0.5" fill="#F7803C" width="107" height="160"/>
	<rect x="-1085" y="1551" opacity="0.25" fill="#FFEDBF" width="400" height="160"/>
	<rect x="-685" y="1551" opacity="0.25" fill="#F8E4C1" width="400" height="160"/>
	<rect x="-685" y="1551" opacity="0.25" fill="#2E0D23" width="241" height="160"/>
	<rect x="-818" y="1551" opacity="0.25" fill="#F54828" width="133" height="160"/>
	<rect x="-925" y="1551" opacity="0.25" fill="#F7803C" width="107" height="160"/>
	<rect x="-1085" y="1711" opacity="0.15" fill="#FFEDBF" width="400" height="160"/>
	<rect x="-685" y="1711" opacity="0.15" fill="#F8E4C1" width="400" height="160"/>
	<rect x="-685" y="1711" opacity="0.15" fill="#2E0D23" width="241" height="160"/>
	<rect x="-818" y="1711" opacity="0.15" fill="#F54828" width="133" height="160"/>
	<rect x="-925" y="1711" opacity="0.15" fill="#F7803C" width="107" height="160"/>
</g>
<g id="Layer_11">
	<rect x="600" y="1831" fill="#FF9900" width="40" height="40"/>
	<rect x="640" y="1831" fill="#424242" width="40" height="40"/>
	<rect x="680" y="1831" fill="#E9E9E9" width="40" height="40"/>
	<rect x="720" y="1831" fill="#BCBCBC" width="40" height="40"/>
	<rect x="760" y="1831" fill="#3299BB" width="40" height="40"/>
	<rect x="40" y="1111" fill="#BCBCBC" width="720" height="720"/>
	<rect x="160" y="1231" fill="#424242" width="160" height="479"/>
	<rect x="320" y="1338" fill="#E9E9E9" width="81" height="54"/>
	<rect x="267" y="1338" opacity="0.75" fill="#3299BB" width="53" height="54"/>
	<rect x="320" y="1550" fill="#E9E9E9" width="81" height="54"/>
	<rect x="267" y="1550" opacity="0.25" fill="#3299BB" width="53" height="54"/>
	<rect x="320" y="1444" fill="#E9E9E9" width="81" height="54"/>
	<rect x="267" y="1444" opacity="0.5" fill="#3299BB" width="53" height="54"/>
	<rect x="481" y="1232" fill="#424242" width="160" height="479"/>
	<rect x="400" y="1550" fill="#E9E9E9" width="81" height="54"/>
	<rect x="481" y="1550" opacity="0.75" fill="#FF9900" width="53" height="54"/>
	<rect x="400" y="1338" fill="#E9E9E9" width="81" height="54"/>
	<rect x="481" y="1338" opacity="0.25" fill="#FF9900" width="53" height="54"/>
	<rect x="400" y="1444" fill="#E9E9E9" width="81" height="54"/>
	<rect x="481" y="1444" opacity="0.5" fill="#FF9900" width="53" height="54"/>
</g>
</svg>
