<?xml version="1.0" encoding="utf-8"?>
<!-- Generator: Adobe Illustrator 15.0.0, SVG Export Plug-In . SVG Version: 6.00 Build 0)  -->
<!DOCTYPE svg PUBLIC "-//W3C//DTD SVG 1.1//EN" "http://www.w3.org/Graphics/SVG/1.1/DTD/svg11.dtd">
<svg version="1.1" xmlns="http://www.w3.org/2000/svg" xmlns:xlink="http://www.w3.org/1999/xlink" x="0px" y="0px" width="800px"
	 height="800px" viewBox="0 0 800 800" enable-background="new 0 0 800 800" xml:space="preserve">
<g id="guides">
</g>
<g id="Layer_2">
	<rect x="-557" y="-2904" fill="#4D64A5" width="558" height="558"/>
	<rect x="-1530" y="-3028" fill="#8DCCAD" width="879" height="156"/>
	<rect x="-1051" y="-2722" fill="#D130AA" width="80" height="80"/>
	<rect x="-971" y="-2722" fill="#BA882E" width="80" height="80"/>
	<rect x="-891" y="-2722" fill="#C2DA8A" width="80" height="80"/>
	<rect x="-811" y="-2722" fill="#64E1BA" width="80" height="80"/>
	<rect x="-731" y="-2722" fill="#4D64A5" width="80" height="80"/>
	<rect x="-1051" y="-2602" fill="#FF9900" width="80" height="80"/>
	<rect x="-1330" y="-2988" fill="#C98181" width="80" height="80"/>
	<rect x="-1410" y="-2988" fill="#E29191" width="80" height="80"/>
	<rect x="-1490" y="-2988" fill="#FCA2A2" width="80" height="80"/>
	<rect x="-1170" y="-2988" fill="#966060" width="80" height="80"/>
	<rect x="-1090" y="-2988" fill="#7C5050" width="80" height="80"/>
	<rect x="-1010" y="-2988" fill="#634040" width="80" height="80"/>
	<rect x="-930" y="-2988" fill="#492F2F" width="80" height="80"/>
	<rect x="-850" y="-2988" fill="#301F1F" width="80" height="80"/>
	<rect x="-770" y="-2988" fill="#020101" width="80" height="80"/>
	<rect x="-971" y="-2602" fill="#424242" width="80" height="80"/>
	<rect x="-891" y="-2602" fill="#E9E9E9" width="80" height="80"/>
	<rect x="-479" y="-2586" fill="#6E81A0" width="80" height="80"/>
	<rect x="-811" y="-2602" fill="#BCBCBC" width="80" height="80"/>
	<rect x="-399" y="-2586" fill="#92DDC2" width="80" height="80"/>
	<rect x="-731" y="-2602" fill="#3299BB" width="80" height="80"/>
	<rect x="67" y="-2829" fill="#FF9900" width="80" height="80"/>
	<rect x="147" y="-2829" fill="#424242" width="80" height="80"/>
	<rect x="227" y="-2829" fill="#E9E9E9" width="80" height="80"/>
	<rect x="307" y="-2829" fill="#BCBCBC" width="80" height="80"/>
	<rect x="387" y="-2829" fill="#3299BB" width="80" height="80"/>
	<rect x="-319" y="-2586" fill="#CFD6B6" width="80" height="80"/>
	<rect x="-239" y="-2586" fill="#B58E55" width="80" height="80"/>
	<rect x="-1051" y="-2847" fill="#8DCCAD" width="80" height="80"/>
	<rect x="-159" y="-2586" fill="#CC5CBC" width="80" height="80"/>
	<rect x="-971" y="-2847" fill="#988864" width="80" height="80"/>
	<rect x="-1250" y="-2988" fill="#AF7171" width="80" height="80"/>
	<rect x="-1530" y="-3224" fill="#8DCCAD" width="720" height="156"/>
	<rect x="-1490" y="-3184" fill="#FCA2A2" width="80" height="80"/>
	<rect x="-1410" y="-3184" fill="#F9AFAF" width="80" height="80"/>
	<rect x="-1330" y="-3184" fill="#F7BABA" width="80" height="80"/>
	<rect x="-1250" y="-3184" fill="#F4C3C3" width="80" height="80"/>
	<rect x="-1170" y="-3184" fill="#F2CECE" width="80" height="80"/>
	<rect x="-1090" y="-3184" fill="#EFD8D8" width="80" height="80"/>
	<rect x="-1010" y="-3184" fill="#EDE2E2" width="80" height="80"/>
	<rect x="-930" y="-3184" fill="#EAEAEA" width="80" height="80"/>
	<rect x="-891" y="-2847" fill="#FEA6A2" width="80" height="80"/>
	<rect x="-479" y="-2666" fill="#7E8B9E" width="80" height="80"/>
	<rect x="-811" y="-2847" fill="#F9D6AC" width="80" height="80"/>
	<rect x="-399" y="-2666" fill="#A9DBC8" width="80" height="80"/>
	<rect x="-731" y="-2847" fill="#FFE9AF" width="80" height="80"/>
	<rect x="-725" y="-4342" fill="#8DCCAD" width="480" height="1120"/>
	<rect x="-245" y="-4342" fill="#8DCCAD" width="80" height="80"/>
	<rect x="-245" y="-4262" fill="#85CCA6" width="80" height="80"/>
	<rect x="-245" y="-4182" fill="#7ACC9E" width="80" height="80"/>
	<rect x="-245" y="-4102" fill="#71CC96" width="80" height="80"/>
	<rect x="-245" y="-4022" fill="#66CC8F" width="80" height="80"/>
	<rect x="-245" y="-3942" fill="#5CCC8A" width="80" height="80"/>
	<rect x="-245" y="-3862" fill="#52CC83" width="80" height="80"/>
	<rect x="-245" y="-3782" fill="#48CC7E" width="80" height="80"/>
	<rect x="-245" y="-3702" fill="#3ECC77" width="80" height="80"/>
	<rect x="-245" y="-3622" fill="#33CC71" width="80" height="80"/>
	<rect x="-245" y="-3542" fill="#1FCC5D" width="80" height="80"/>
	<rect x="-245" y="-3462" fill="#15CC52" width="80" height="80"/>
	<rect x="-245" y="-3382" fill="#0ACC46" width="80" height="80"/>
	<rect x="-245" y="-3302" fill="#00CC3A" width="80" height="80"/>
	<rect x="-645" y="-3382" fill="#988864" width="80" height="80"/>
	<rect x="-565" y="-3382" fill="#FEA6A2" width="80" height="80"/>
	<rect x="-485" y="-3382" fill="#F9D6AC" width="80" height="80"/>
	<rect x="-405" y="-3382" fill="#FFE9AF" width="80" height="80"/>
	<rect x="-645" y="-3462" fill="#968769" width="80" height="80"/>
	<rect x="-565" y="-3462" fill="#FCB1B1" width="80" height="80"/>
	<rect x="-485" y="-3462" fill="#F7DABA" width="80" height="80"/>
	<rect x="-405" y="-3462" fill="#FFEBC0" width="80" height="80"/>
	<rect x="-645" y="-3542" fill="#93866F" width="80" height="80"/>
	<rect x="-565" y="-3542" fill="#F9BBBB" width="80" height="80"/>
	<rect x="-485" y="-3542" fill="#F4DBC3" width="80" height="80"/>
	<rect x="-405" y="-3542" fill="#FFEECC" width="80" height="80"/>
	<rect x="-645" y="-3622" fill="#918674" width="80" height="80"/>
	<rect x="-565" y="-3622" fill="#F7C6C6" width="80" height="80"/>
	<rect x="-485" y="-3622" fill="#F2DECE" width="80" height="80"/>
	<rect x="-405" y="-3622" fill="#FFF1D9" width="80" height="80"/>
	<rect x="-645" y="-3702" fill="#8E8679" width="80" height="80"/>
	<rect x="-565" y="-3702" fill="#F4D0D0" width="80" height="80"/>
	<rect x="-485" y="-3702" fill="#EFE1D8" width="80" height="80"/>
	<rect x="-405" y="-3702" fill="#FFF5E6" width="80" height="80"/>
	<rect x="-645" y="-3782" fill="#8C877E" width="80" height="80"/>
	<rect x="-565" y="-3782" fill="#F2DADA" width="80" height="80"/>
	<rect x="-485" y="-3782" fill="#EDE6E2" width="80" height="80"/>
	<rect x="-405" y="-3782" fill="#FFFAF3" width="80" height="80"/>
	<rect x="-645" y="-3862" fill="#8C877E" width="80" height="80"/>
	<rect x="-565" y="-3862" fill="#EFE4E4" width="80" height="80"/>
	<rect x="-485" y="-3862" fill="#EAEAEA" width="80" height="80"/>
	<rect x="-405" y="-3862" fill="#FFFFFF" width="80" height="80"/>
	<rect x="-645" y="-3942" fill="#898683" width="80" height="80"/>
	<rect x="-565" y="-3942" fill="#EDEDED" width="80" height="80"/>
	<rect x="-645" y="-4022" fill="#878787" width="80" height="80"/>
	<rect x="-319" y="-2666" fill="#D1D3CB" width="80" height="80"/>
	<rect x="-239" y="-2666" fill="#B29267" width="80" height="80"/>
	<rect x="-479" y="-2506" fill="#5F74A3" width="80" height="80"/>
	<rect x="-159" y="-2666" fill="#CC72C3" width="80" height="80"/>
	<rect x="-399" y="-2506" fill="#7CE0BF" width="80" height="80"/>
	<rect x="-159" y="-2746" fill="#CC89C9" width="80" height="80"/>
	<rect x="-319" y="-2506" fill="#C9D8A0" width="80" height="80"/>
	<rect x="-479" y="-2746" fill="#8C929B" width="80" height="80"/>
	<rect x="-239" y="-2506" fill="#B78A42" width="80" height="80"/>
	<rect x="-399" y="-2746" fill="#BFD8CE" width="80" height="80"/>
	<rect x="-159" y="-2506" fill="#CE46B4" width="80" height="80"/>
	<rect x="-319" y="-2746" fill="#D1D1D1" width="80" height="80"/>
	<rect x="-239" y="-2746" fill="#AF9679" width="80" height="80"/>
	<rect x="-159" y="-2826" fill="#CC9FCC" width="80" height="80"/>
	<rect x="-479" y="-2826" fill="#999999" width="80" height="80"/>
	<rect x="-399" y="-2826" fill="#D4D6D5" width="80" height="80"/>
	<rect x="-319" y="-2826" fill="#D1D1D1" width="80" height="80"/>
	<rect x="-239" y="-2826" fill="#AD9B8A" width="80" height="80"/>
</g>
<g id="Layer_3">
	<rect x="-2153" y="-2171" fill="#4D64A5" width="800" height="800"/>
	<rect x="-1993" y="-1723" fill="#6E81A0" width="96" height="96"/>
	<rect x="-1897" y="-1723" fill="#92DDC2" width="96" height="96"/>
	<rect x="-1801" y="-1723" fill="#CFD6B6" width="96" height="96"/>
	<rect x="-1705" y="-1723" fill="#B58E55" width="96" height="96"/>
	<rect x="-1609" y="-1723" fill="#CC5CBC" width="96" height="96"/>
	<rect x="-1993" y="-1819" fill="#7E8B9E" width="96" height="96"/>
	<rect x="-1897" y="-1819" fill="#A9DBC8" width="96" height="96"/>
	<rect x="-1801" y="-1819" fill="#D1D3CB" width="96" height="96"/>
	<rect x="-1705" y="-1819" fill="#B29267" width="96" height="96"/>
	<rect x="-1993" y="-1627" fill="#5F74A3" width="96" height="96"/>
	<rect x="-1609" y="-1819" fill="#CC72C3" width="96" height="96"/>
	<rect x="-1897" y="-1627" fill="#7CE0BF" width="96" height="96"/>
	<rect x="-1609" y="-1915" fill="#CC89C9" width="96" height="96"/>
	<rect x="-1801" y="-1627" fill="#C9D8A0" width="96" height="96"/>
	<rect x="-1993" y="-1915" fill="#8C929B" width="96" height="96"/>
	<rect x="-1705" y="-1627" fill="#B78A42" width="96" height="96"/>
	<rect x="-1897" y="-1915" fill="#BFD8CE" width="96" height="96"/>
	<rect x="-1609" y="-1627" fill="#CE46B4" width="96" height="96"/>
	<rect x="-1801" y="-1915" fill="#D1D1D1" width="96" height="96"/>
	<rect x="-1705" y="-1915" fill="#AF9679" width="96" height="96"/>
	<rect x="-1609" y="-2011" fill="#CC9FCC" width="96" height="96"/>
	<rect x="-1993" y="-2011" fill="#999999" width="96" height="96"/>
	<rect x="-1897" y="-2011" fill="#D4D6D5" width="96" height="96"/>
	<rect x="-1801" y="-2011" fill="#D1D1D1" width="96" height="96"/>
	<rect x="-1705" y="-2011" fill="#AD9B8A" width="96" height="96"/>
</g>
<g id="Layer_4">
	<rect x="-1085" y="-2171" fill="#8DCCAD" width="720" height="800"/>
	<rect x="-365" y="-2171" fill="#8DCCAD" width="80" height="57"/>
	<rect x="-365" y="-2114" fill="#85CCA6" width="80" height="57"/>
	<rect x="-365" y="-2057" fill="#7ACC9E" width="80" height="58"/>
	<rect x="-365" y="-1999" fill="#71CC96" width="80" height="57"/>
	<rect x="-365" y="-1942" fill="#66CC8F" width="80" height="57"/>
	<rect x="-365" y="-1885" fill="#5CCC8A" width="80" height="57"/>
	<rect x="-365" y="-1828" fill="#52CC83" width="80" height="58"/>
	<rect x="-365" y="-1770" fill="#48CC7E" width="80" height="57"/>
	<rect x="-365" y="-1713" fill="#3ECC77" width="80" height="57"/>
	<rect x="-365" y="-1656" fill="#33CC71" width="80" height="56"/>
	<rect x="-365" y="-1600" fill="#1FCC5D" width="80" height="57"/>
	<rect x="-365" y="-1543" fill="#15CC52" width="80" height="58"/>
	<rect x="-365" y="-1485" fill="#0ACC46" width="80" height="57"/>
	<rect x="-365" y="-1428" fill="#00CC3A" width="80" height="57"/>
	<rect x="-1045" y="-2131" fill="#988864" width="80" height="80"/>
	<rect x="-1045" y="-1904" fill="#FEA6A2" width="80" height="80"/>
	<rect x="-1044" y="-1678" fill="#F9D6AC" width="80" height="80"/>
	<rect x="-1045" y="-1451" fill="#FFE9AF" width="80" height="80"/>
	<rect x="-965" y="-2131" fill="#968769" width="80" height="80"/>
	<rect x="-965" y="-1904" fill="#FCB1B1" width="80" height="80"/>
	<rect x="-964" y="-1678" fill="#F7DABA" width="80" height="80"/>
	<rect x="-965" y="-1451" fill="#FFEBC0" width="80" height="80"/>
	<rect x="-885" y="-2131" fill="#93866F" width="80" height="80"/>
	<rect x="-885" y="-1904" fill="#F9BBBB" width="80" height="80"/>
	<rect x="-884" y="-1678" fill="#F4DBC3" width="80" height="80"/>
	<rect x="-885" y="-1451" fill="#FFEECC" width="80" height="80"/>
	<rect x="-805" y="-2131" fill="#918674" width="80" height="80"/>
	<rect x="-805" y="-1904" fill="#F7C6C6" width="80" height="80"/>
	<rect x="-804" y="-1678" fill="#F2DECE" width="80" height="80"/>
	<rect x="-805" y="-1451" fill="#FFF1D9" width="80" height="80"/>
	<rect x="-725" y="-2131" fill="#8E8679" width="80" height="80"/>
	<rect x="-725" y="-1904" fill="#F4D0D0" width="80" height="80"/>
	<rect x="-724" y="-1678" fill="#EFE1D8" width="80" height="80"/>
	<rect x="-725" y="-1451" fill="#FFF5E6" width="80" height="80"/>
	<rect x="-645" y="-2131" fill="#8C877E" width="80" height="80"/>
	<rect x="-645" y="-1904" fill="#F2DADA" width="80" height="80"/>
	<rect x="-644" y="-1678" fill="#EDE6E2" width="80" height="80"/>
	<rect x="-645" y="-1451" fill="#FFFAF3" width="80" height="80"/>
	<rect x="-565" y="-2131" fill="#8C877E" width="80" height="80"/>
	<rect x="-565" y="-1904" fill="#EFE4E4" width="80" height="80"/>
	<rect x="-564" y="-1678" fill="#EAEAEA" width="80" height="80"/>
	<rect x="-565" y="-1451" fill="#FFFFFF" width="80" height="80"/>
	<rect x="-485" y="-2131" fill="#898683" width="80" height="80"/>
	<rect x="-485" y="-1904" fill="#EDEDED" width="80" height="80"/>
	<rect x="-405" y="-2131" fill="#878787" width="80" height="80"/>
</g>
<g id="Layer_5">
	<rect y="-2171" fill="#00A99D" width="800" height="800"/>
	
		<rect x="382.043" y="-1976.122" transform="matrix(0.7071 0.7071 -0.7071 0.7071 -1089.9523 -875.4502)" opacity="0.5" fill="#FF00FF" width="259.481" height="445.421"/>
	<rect x="271" y="-2011" opacity="0.5" fill="#FF00FF" width="258" height="446"/>
	
		<rect x="159.506" y="-1975.982" transform="matrix(0.7071 -0.7071 0.7071 0.7071 1324.4669 -308.9915)" opacity="0.5" fill="#FF00FF" width="259.483" height="445.421"/>
</g>
<g id="Layer_6">
	<rect x="-2153" y="-1071" fill="#998FA7" width="400" height="800"/>
	<rect x="-1753" y="-1071" fill="#50D8D8" width="400" height="800"/>
	<rect x="-1886" y="-1070" fill="#80C5C9" width="265" height="39"/>
	<rect x="-2073" y="-804" fill="#80C5C9" width="188" height="265"/>
	<rect x="-1620" y="-803" fill="#80C5C9" width="188" height="265"/>
</g>
<g id="Layer_7">
	<rect x="-1085" y="-1071" fill="#32C6C6" width="400" height="400"/>
	<rect x="-685" y="-1071" fill="#63C6C6" width="400" height="400"/>
	<rect x="-685" y="-671" fill="#00C6C6" width="400" height="400"/>
	<rect x="-1085" y="-671" fill="#95C6C6" width="400" height="400"/>
</g>
<g id="Layer_8">
	<rect y="-1071" fill="#5929A5" width="400" height="400"/>
	<rect x="400" y="-1071" fill="#7353A5" width="400" height="400"/>
	<rect x="400" y="-671" fill="#4000A5" width="400" height="400"/>
	<rect y="-671" fill="#8C7CA5" width="400" height="400"/>
	<rect x="80" y="-991" fill="#32C6C6" width="120" height="120"/>
	<rect x="200" y="-991" fill="#63C6C6" width="120" height="120"/>
	<rect x="200" y="-871" fill="#00C6C6" width="120" height="120"/>
	<rect x="80" y="-871" fill="#95C6C6" width="120" height="120"/>
	<rect x="480" y="-991" fill="#32C6C6" width="120" height="120"/>
	<rect x="600" y="-991" fill="#63C6C6" width="120" height="120"/>
	<rect x="600" y="-871" fill="#00C6C6" width="120" height="120"/>
	<rect x="480" y="-871" fill="#95C6C6" width="120" height="120"/>
	<rect x="480" y="-591" fill="#32C6C6" width="120" height="120"/>
	<rect x="600" y="-591" fill="#63C6C6" width="120" height="120"/>
	<rect x="600" y="-471" fill="#00C6C6" width="120" height="120"/>
	<rect x="480" y="-471" fill="#95C6C6" width="120" height="120"/>
	<rect x="80" y="-591" fill="#32C6C6" width="120" height="120"/>
	<rect x="200" y="-591" fill="#63C6C6" width="120" height="120"/>
	<rect x="200" y="-471" fill="#00C6C6" width="120" height="120"/>
	<rect x="80" y="-471" fill="#95C6C6" width="120" height="120"/>
</g>
<g id="Layer_9">
	<rect x="-2153" fill="#9993A3" width="800" height="800"/>
	<rect x="-2073" y="120" fill="#8A80A0" width="640" height="640"/>
	<rect x="-1993" y="240" fill="#DBEA9D" width="480" height="480"/>
	<rect x="-1886" y="375" fill="#E8C39E" width="265" height="265"/>
</g>
<g id="Layer_10">
	<rect x="-1085" fill="#FFEDBF" width="400" height="160"/>
	<rect x="-685" fill="#F8E4C1" width="400" height="160"/>
	<rect x="-685" fill="#2E0D23" width="241" height="160"/>
	<rect x="-818" fill="#F54828" width="133" height="160"/>
	<rect x="-925" fill="#F7803C" width="107" height="160"/>
	<rect x="-1085" y="160" opacity="0.75" fill="#FFEDBF" width="400" height="160"/>
	<rect x="-685" y="160" opacity="0.75" fill="#F8E4C1" width="400" height="160"/>
	<rect x="-685" y="160" opacity="0.75" fill="#2E0D23" width="241" height="160"/>
	<rect x="-818" y="160" opacity="0.75" fill="#F54828" width="133" height="160"/>
	<rect x="-925" y="160" opacity="0.75" fill="#F7803C" width="107" height="160"/>
	<rect x="-1085" y="320" opacity="0.5" fill="#FFEDBF" width="400" height="160"/>
	<rect x="-685" y="320" opacity="0.5" fill="#F8E4C1" width="400" height="160"/>
	<rect x="-685" y="320" opacity="0.5" fill="#2E0D23" width="241" height="160"/>
	<rect x="-818" y="320" opacity="0.5" fill="#F54828" width="133" height="160"/>
	<rect x="-925" y="320" opacity="0.5" fill="#F7803C" width="107" height="160"/>
	<rect x="-1085" y="480" opacity="0.25" fill="#FFEDBF" width="400" height="160"/>
	<rect x="-685" y="480" opacity="0.25" fill="#F8E4C1" width="400" height="160"/>
	<rect x="-685" y="480" opacity="0.25" fill="#2E0D23" width="241" height="160"/>
	<rect x="-818" y="480" opacity="0.25" fill="#F54828" width="133" height="160"/>
	<rect x="-925" y="480" opacity="0.25" fill="#F7803C" width="107" height="160"/>
	<rect x="-1085" y="640" opacity="0.15" fill="#FFEDBF" width="400" height="160"/>
	<rect x="-685" y="640" opacity="0.15" fill="#F8E4C1" width="400" height="160"/>
	<rect x="-685" y="640" opacity="0.15" fill="#2E0D23" width="241" height="160"/>
	<rect x="-818" y="640" opacity="0.15" fill="#F54828" width="133" height="160"/>
	<rect x="-925" y="640" opacity="0.15" fill="#F7803C" width="107" height="160"/>
</g>
<g id="Layer_11">
	<rect x="600" y="760" fill="#FF9900" width="40" height="40"/>
	<rect x="640" y="760" fill="#424242" width="40" height="40"/>
	<rect x="680" y="760" fill="#E9E9E9" width="40" height="40"/>
	<rect x="720" y="760" fill="#BCBCBC" width="40" height="40"/>
	<rect x="760" y="760" fill="#3299BB" width="40" height="40"/>
	<rect x="40" y="40" fill="#BCBCBC" width="720" height="720"/>
	<rect x="160" y="160" fill="#424242" width="160" height="479"/>
	<rect x="320" y="267" fill="#E9E9E9" width="81" height="54"/>
	<rect x="267" y="267" opacity="0.75" fill="#3299BB" width="53" height="54"/>
	<rect x="320" y="479" fill="#E9E9E9" width="81" height="54"/>
	<rect x="267" y="479" opacity="0.25" fill="#3299BB" width="53" height="54"/>
	<rect x="320" y="373" fill="#E9E9E9" width="81" height="54"/>
	<rect x="267" y="373" opacity="0.5" fill="#3299BB" width="53" height="54"/>
	<rect x="481" y="161" fill="#424242" width="160" height="479"/>
	<rect x="400" y="479" fill="#E9E9E9" width="81" height="54"/>
	<rect x="481" y="479" opacity="0.75" fill="#FF9900" width="53" height="54"/>
	<rect x="400" y="267" fill="#E9E9E9" width="81" height="54"/>
	<rect x="481" y="267" opacity="0.25" fill="#FF9900" width="53" height="54"/>
	<rect x="400" y="373" fill="#E9E9E9" width="81" height="54"/>
	<rect x="481" y="373" opacity="0.5" fill="#FF9900" width="53" height="54"/>
</g>
</svg>
